<svg xmlns="http://www.w3.org/2000/svg" viewBox="0 0 1180 260" role="img" aria-labelledby="title desc">
  <title id="title">CrediProcure logo</title>
  <desc id="desc">CrediProcure wordmark with a square fintech mark on a transparent background.</desc>

  <g transform="translate(18 22)">
    <rect x="0" y="0" width="214" height="214" rx="54" fill="#071421"/>
    <rect x="8" y="8" width="198" height="198" rx="46" fill="none" stroke="#7ce9d5" stroke-opacity="0.26" stroke-width="2"/>
    <rect x="92" y="42" width="76" height="102" rx="14" fill="#0b3e46" stroke="#38d5bd" stroke-opacity="0.28"/>
    <path d="M86 58h74l24 24v88c0 10.493-8.507 19-19 19H86c-10.493 0-19-8.507-19-19V77c0-10.493 8.507-19 19-19Z" fill="#eff5ff"/>
    <path d="M160 58v18c0 3.314 2.686 6 6 6h18Z" fill="#4f46e5"/>
    <path d="M160 58v18c0 3.314 2.686 6 6 6h18" fill="none" stroke="#312e81" stroke-opacity="0.24" stroke-width="5.5" stroke-linecap="round" stroke-linejoin="round"/>
    <rect x="84" y="92" width="56" height="6.5" rx="3.25" fill="#91a6bf"/>
    <rect x="84" y="108" width="42" height="6.5" rx="3.25" fill="#91a6bf" fill-opacity="0.72"/>
    <path d="M102 128c-13.255 0-24 10.745-24 24s10.745 24 24 24h12" fill="none" stroke="#22d3aa" stroke-width="10" stroke-linecap="round" stroke-linejoin="round"/>
    <path d="M132 128v48" fill="none" stroke="#14b8a6" stroke-width="10" stroke-linecap="round"/>
    <path d="M132 128h13c12.703 0 23 10.297 23 23s-10.297 23-23 23h-13" fill="none" stroke="#4f46e5" stroke-width="10" stroke-linecap="round" stroke-linejoin="round"/>
  </g>

  <text x="308" y="112" fill="#0f172a" font-family="DejaVu Sans, Arial, sans-serif" font-size="74" font-weight="700">
    Credi
  </text>
  <text x="496" y="112" fill="#0f766e" font-family="DejaVu Sans, Arial, sans-serif" font-size="74" font-weight="700">
    Procure
  </text>
  <text x="312" y="160" fill="#14b8a6" font-family="DejaVu Sans, Arial, sans-serif" font-size="24" font-weight="700" letter-spacing="4">
    ON-CHAIN INVOICE FINANCING
  </text>
  <text x="312" y="196" fill="#64748b" font-family="DejaVu Sans, Arial, sans-serif" font-size="20" font-weight="400">
    RWA liquidity rails for vendors, investors, and procurement networks
  </text>
</svg>
